<?xml version="1.0" encoding="utf-8"?>
<!-- Generator: Adobe Illustrator 25.0.0, SVG Export Plug-In . SVG Version: 6.00 Build 0)  -->
<svg version="1.1" id="livetype" xmlns="http://www.w3.org/2000/svg" xmlns:xlink="http://www.w3.org/1999/xlink" x="0px" y="0px"
	 viewBox="0 0 119.7 40" style="enable-background:new 0 0 119.7 40;" xml:space="preserve">
<style type="text/css">
	.st0{fill:#FFFFFF;}
</style>
<path class="st0" d="M119.7,8.4c0-0.3,0-0.6,0-0.9c0-0.7-0.1-1.3-0.2-2c-0.1-0.7-0.3-1.3-0.6-1.9c-0.6-1.2-1.6-2.2-2.8-2.8
	c-0.6-0.3-1.2-0.5-1.9-0.6c-0.7-0.1-1.3-0.2-2-0.2c-0.3,0-0.6,0-0.9,0c-0.4,0-0.7,0-1.1,0v0H9.5C9.2,0,8.8,0,8.4,0
	C8.1,0,7.8,0,7.5,0c-0.7,0-1.3,0.1-2,0.2C4.9,0.3,4.2,0.5,3.6,0.8C3,1.1,2.5,1.5,2,2C1.5,2.5,1.1,3,0.8,3.6C0.5,4.2,0.3,4.9,0.2,5.5
	C0.1,6.2,0,6.9,0,7.5c0,0.3,0,0.6,0,0.9v23.1c0,0.3,0,0.6,0,0.9c0,0.7,0.1,1.3,0.2,2c0.1,0.7,0.3,1.3,0.6,1.9C1.1,37,1.5,37.5,2,38
	c0.5,0.5,1,0.9,1.6,1.2c0.6,0.3,1.2,0.5,1.9,0.6c0.7,0.1,1.3,0.2,2,0.2c0.3,0,0.6,0,0.9,0c0.4,0,0.7,0,1.1,0h100.6
	c0.4,0,0.7,0,1.1,0c0.3,0,0.6,0,0.9,0c0.7,0,1.3-0.1,2-0.2c0.7-0.1,1.3-0.3,1.9-0.6c0.6-0.3,1.1-0.7,1.6-1.2c0.5-0.5,0.9-1,1.2-1.6
	c0.3-0.6,0.5-1.2,0.6-1.9c0.1-0.7,0.2-1.3,0.2-2c0-0.3,0-0.6,0-0.9c0-0.4,0-0.7,0-1.1V9.5C119.7,9.2,119.7,8.8,119.7,8.4z
	 M118.8,30.5c0,0.4,0,0.7,0,1.1c0,0.3,0,0.6,0,0.9c0,0.6-0.1,1.2-0.2,1.9c-0.1,0.6-0.3,1.1-0.5,1.7c-0.3,0.5-0.6,1-1,1.4
	c-0.4,0.4-0.9,0.8-1.4,1c-0.5,0.3-1.1,0.5-1.7,0.5c-0.6,0.1-1.2,0.2-1.9,0.2c-0.3,0-0.6,0-0.9,0l-1.1,0l-101.7,0c-0.3,0-0.6,0-0.9,0
	c-0.6,0-1.3-0.1-1.9-0.2c-0.6-0.1-1.1-0.3-1.7-0.5c-0.5-0.3-1-0.6-1.4-1c-0.4-0.4-0.8-0.9-1-1.4c-0.3-0.5-0.4-1.1-0.5-1.7
	c-0.1-0.6-0.2-1.2-0.2-1.9c0-0.2,0-0.9,0-0.9V8.4c0,0,0-0.7,0-0.9c0-0.6,0.1-1.3,0.2-1.9C1.1,5.1,1.3,4.5,1.6,4c0.3-0.5,0.6-1,1-1.4
	C3,2.2,3.5,1.9,4,1.6c0.5-0.3,1.1-0.4,1.7-0.5c0.6-0.1,1.2-0.2,1.9-0.2l0.9,0h102.8l0.9,0c0.6,0,1.2,0.1,1.9,0.2
	c0.6,0.1,1.1,0.3,1.7,0.5c1,0.5,1.9,1.4,2.4,2.4c0.3,0.5,0.4,1.1,0.5,1.6c0.1,0.6,0.2,1.3,0.2,1.9c0,0.3,0,0.6,0,0.9
	c0,0.4,0,0.7,0,1.1V30.5z"/>
<g>
	<path class="st0" d="M41.7,10.7c0,0.7-0.2,1.3-0.7,1.8c-0.5,0.5-1.2,0.8-2,0.8c-0.8,0-1.4-0.3-2-0.8c-0.5-0.5-0.8-1.2-0.8-2
		c0-0.8,0.3-1.5,0.8-2c0.5-0.5,1.2-0.8,2-0.8c0.4,0,0.7,0.1,1.1,0.2c0.3,0.1,0.6,0.3,0.8,0.6L40.5,9c-0.4-0.4-0.8-0.6-1.5-0.6
		c-0.6,0-1,0.2-1.5,0.6C37.2,9.4,37,9.9,37,10.5s0.2,1.1,0.6,1.5c0.4,0.4,0.9,0.6,1.5,0.6c0.6,0,1.1-0.2,1.5-0.6
		c0.3-0.3,0.4-0.6,0.4-1.1H39v-0.6h2.6C41.6,10.5,41.7,10.6,41.7,10.7z"/>
	<path class="st0" d="M45.8,8.5h-2.4v1.7h2.2v0.6h-2.2v1.7h2.4v0.7h-3.1V7.8h3.1V8.5z"/>
	<path class="st0" d="M48.7,13.2H48V8.5h-1.5V7.8h3.7v0.7h-1.5V13.2z"/>
	<path class="st0" d="M52.8,13.2V7.8h0.7v5.3H52.8z"/>
	<path class="st0" d="M56.5,13.2h-0.7V8.5h-1.5V7.8H58v0.7h-1.5V13.2z"/>
	<path class="st0" d="M65,12.5c-0.5,0.5-1.2,0.8-2,0.8c-0.8,0-1.4-0.3-2-0.8c-0.5-0.5-0.8-1.2-0.8-2s0.3-1.4,0.8-2
		c0.5-0.5,1.2-0.8,2-0.8c0.8,0,1.4,0.3,2,0.8c0.5,0.5,0.8,1.2,0.8,2C65.8,11.3,65.5,11.9,65,12.5z M61.6,12c0.4,0.4,0.9,0.6,1.5,0.6
		c0.6,0,1.1-0.2,1.5-0.6c0.4-0.4,0.6-0.9,0.6-1.5S64.9,9.4,64.5,9c-0.4-0.4-0.9-0.6-1.5-0.6c-0.6,0-1.1,0.2-1.5,0.6
		C61.2,9.4,61,9.9,61,10.5S61.2,11.6,61.6,12z"/>
	<path class="st0" d="M66.7,13.2V7.8h0.8l2.6,4.2h0l0-1V7.8h0.7v5.3h-0.7l-2.7-4.4h0l0,1v3.3H66.7z"/>
	<path class="st0" d="M60.1,21c-2.1,0-3.8,1.6-3.8,3.8c0,2.2,1.7,3.8,3.8,3.8c2.1,0,3.8-1.6,3.8-3.8C63.9,22.6,62.2,21,60.1,21z
		 M60.1,27C59,27,58,26.1,58,24.8c0-1.4,1-2.3,2.1-2.3s2.1,0.9,2.1,2.3C62.2,26.1,61.3,27,60.1,27z M51.8,21c-2.1,0-3.8,1.6-3.8,3.8
		c0,2.2,1.7,3.8,3.8,3.8c2.1,0,3.8-1.6,3.8-3.8C55.6,22.6,53.9,21,51.8,21z M51.8,27c-1.1,0-2.1-0.9-2.1-2.3c0-1.4,1-2.3,2.1-2.3
		c1.1,0,2.1,0.9,2.1,2.3C53.9,26.1,53,27,51.8,27z M41.9,22.1v1.6h3.8c-0.1,0.9-0.4,1.6-0.9,2c-0.6,0.6-1.4,1.2-3,1.2
		c-2.4,0-4.2-1.9-4.2-4.3s1.9-4.3,4.2-4.3c1.3,0,2.2,0.5,2.9,1.1l1.1-1.1c-1-0.9-2.2-1.6-4-1.6c-3.2,0-6,2.6-6,5.9
		c0,3.2,2.7,5.9,6,5.9c1.7,0,3.1-0.6,4.1-1.6c1.1-1.1,1.4-2.6,1.4-3.8c0-0.4,0-0.7-0.1-1H41.9z M82.3,23.4C82,22.5,81,21,79,21
		c-2,0-3.6,1.5-3.6,3.8c0,2.1,1.6,3.8,3.8,3.8c1.7,0,2.7-1.1,3.2-1.7L81.1,26c-0.4,0.6-1,1-1.9,1c-0.8,0-1.4-0.4-1.8-1.1l5.1-2.1
		L82.3,23.4z M77.1,24.6c0-1.5,1.1-2.2,2-2.2c0.7,0,1.2,0.3,1.4,0.8L77.1,24.6z M73,28.3h1.7V17.2H73V28.3z M70.3,21.8L70.3,21.8
		c-0.4-0.4-1.1-0.8-2.1-0.8c-1.9,0-3.6,1.7-3.6,3.8c0,2.1,1.7,3.8,3.6,3.8c0.9,0,1.6-0.4,2-0.9h0.1v0.5c0,1.4-0.8,2.2-2,2.2
		c-1,0-1.6-0.7-1.9-1.3l-1.4,0.6c0.4,1,1.5,2.2,3.4,2.2c2,0,3.6-1.1,3.6-3.9v-6.8h-1.6V21.8z M68.4,27c-1.1,0-2.1-1-2.1-2.3
		c0-1.3,1-2.3,2.1-2.3c1.1,0,2,1,2,2.3C70.4,26.1,69.5,27,68.4,27z M90.1,17.2h-4v11.1h1.7v-4.2h2.3c1.8,0,3.7-1.3,3.7-3.5
		S91.9,17.2,90.1,17.2z M90.1,22.5h-2.4v-3.8h2.4c1.2,0,1.9,1,1.9,1.9C92.1,21.5,91.4,22.5,90.1,22.5z M100.4,20.9
		c-1.2,0-2.4,0.5-3,1.7l1.5,0.6c0.3-0.6,0.9-0.8,1.5-0.8c0.9,0,1.7,0.5,1.7,1.4V24c-0.3-0.2-0.9-0.4-1.7-0.4c-1.6,0-3.2,0.9-3.2,2.5
		c0,1.5,1.3,2.4,2.8,2.4c1.1,0,1.7-0.5,2.1-1.1h0.1v0.9h1.6V24C103.8,22,102.3,20.9,100.4,20.9z M100.2,27c-0.5,0-1.3-0.3-1.3-0.9
		c0-0.9,0.9-1.2,1.8-1.2c0.7,0,1.1,0.2,1.5,0.4C102,26.3,101.2,27,100.2,27z M109.6,21.2l-1.9,4.8h-0.1l-2-4.8h-1.8l3,6.7l-1.7,3.8
		h1.7l4.6-10.5H109.6z M94.6,28.3h1.7V17.2h-1.7V28.3z"/>
	<path class="st0" d="M9.5,8.1c0.4-0.1,0.9,0,1.2,0.3l12.3,7l-3.1,3.1L9.5,8.1z M8.5,9C8.4,9.2,8.4,9.4,8.4,9.7v19.6
		c0,0.2,0,0.5,0.1,0.6l10.4-10.4L8.5,9z M19.8,20.3L9.5,30.8c0.4,0.1,0.9,0,1.2-0.3l12.3-7L19.8,20.3z M27.9,18.2l-3.7-2.1l-3.4,3.3
		l3.4,3.4l3.7-2.1C29.1,20,29.1,18.8,27.9,18.2L27.9,18.2z"/>
</g>
</svg>
