<?xml version="1.0" encoding="utf-8"?>
<!-- Generator: Adobe Illustrator 24.2.3, SVG Export Plug-In . SVG Version: 6.00 Build 0)  -->
<svg version="1.1" id="Layer_1" xmlns="http://www.w3.org/2000/svg" xmlns:xlink="http://www.w3.org/1999/xlink" x="0px" y="0px"
	 viewBox="0 0 189 67" style="enable-background:new 0 0 189 67;" xml:space="preserve">
<g>
	<path d="M1.3,3.9h14.5l14.4,46.5L44.6,3.9h12.9L37.3,64.4H21.5L1.3,3.9z"/>
	<path d="M50.3,42.8v-0.7c0-14,9.9-23,22.8-23c11.4,0,21.6,6.7,21.6,22.5V45H62.7c0.3,7.4,4.3,11.6,11,11.6c5.7,0,8.5-2.5,9.2-6.2
		h11.6c-1.4,9.6-9.1,14.9-21.2,14.9C60,65.3,50.3,56.9,50.3,42.8z M82.7,37.5c-0.4-6.7-3.8-9.9-9.6-9.9c-5.5,0-9.2,3.6-10.2,9.9
		H82.7z"/>
	<path d="M98.4,20.1h12.3v7c2.2-4.4,7-8,14.4-8c8.7,0,14.9,5.2,14.9,17.1v28.2h-12.3V38c0-6-2.4-8.9-7.8-8.9c-5.2,0-9.2,3.2-9.2,9.7
		v25.6H98.4V20.1z"/>
	<path d="M144.6,20.1h12.3v7c2.2-4.4,7-8,14.4-8c8.7,0,14.9,5.2,14.9,17.1v28.2h-12.3V38c0-6-2.4-8.9-7.8-8.9
		c-5.2,0-9.2,3.2-9.2,9.7v25.6h-12.3V20.1z"/>
</g>
</svg>
